<svg width="512" height="512" viewBox="0 0 512 512" fill="none" xmlns="http://www.w3.org/2000/svg">
<path d="M420.422 503.234C310.918 514.922 201.082 514.922 91.5781 503.234C47.9141 498.574 13.4258 464.086 8.76562 420.418C-2.92188 310.914 -2.92188 201.082 8.76562 91.5781C13.4258 47.9141 47.9141 13.4258 91.5781 8.76562C201.082 -2.92188 310.914 -2.92188 420.418 8.76562C464.086 13.4258 498.574 47.9141 503.234 91.5781C514.922 201.082 514.922 310.914 503.234 420.418C498.574 464.086 464.09 498.574 420.422 503.234Z" fill="url(#paint0_linear)"/>
<path d="M475.387 110.098C471.254 71.3516 440.652 40.7461 401.902 36.6094C304.73 26.2422 207.27 26.2422 110.098 36.6094C71.3516 40.7461 40.7461 71.3516 36.6094 110.098C26.2422 207.27 26.2422 304.73 36.6094 401.898C40.7461 440.648 71.3516 471.254 110.098 475.387C207.27 485.758 304.73 485.758 401.898 475.387C440.648 471.254 471.254 440.648 475.387 401.898C485.758 304.73 485.758 207.27 475.387 110.098V110.098Z" fill="url(#paint1_linear)"/>
<path d="M7.67188 409.805C8.02344 413.344 8.38672 416.883 8.76562 420.422C13.4258 464.086 47.9141 498.574 91.582 503.234C201.086 514.922 310.918 514.922 420.422 503.234C464.09 498.574 498.574 464.086 503.234 420.422C503.613 416.883 503.977 413.344 504.332 409.805H7.67188Z" fill="url(#paint2_linear)"/>
<path d="M453.891 239.008L459 139.926C447.09 146.734 349.406 291.406 341.5 293.5C337.055 294.691 309.226 147.254 306.617 147.609C294.633 135.324 277.898 127.695 259.375 127.695C222.93 127.695 193.379 157.242 193.379 193.695C193.379 195.012 193.414 196.312 193.5 197.609C193.676 200.77 194.078 203.875 194.699 206.895C179.484 206.668 130.031 202.605 82.8671 162.176C82.8632 162.176 82.8632 162.172 82.8632 162.172H82.8593L60.6171 139.926C60.6171 139.926 34.5233 185.469 72.8866 220.027C74.5702 221.906 76.4218 223.762 78.4491 225.586C78.6093 225.766 78.7772 225.941 78.9374 226.121C73.9022 225.781 58.7577 224.273 49.9921 218.082C49.9921 218.082 48.2304 245.918 71.4218 266.41L90.1483 285.297C84.4452 285.77 78.1366 285.656 73.7499 283.734C73.7499 283.734 77.6327 300.223 92.6405 313.418L221 337.5C261 308.5 164.5 380.5 164.5 380.5L278.5 484.5C333.18 484.484 314.902 507.828 369.5 502C413.168 497.34 440.578 465.086 445.238 421.422C451.719 360.68 454.598 299.836 453.891 239.008Z" fill="url(#paint3_linear)"/>
<path d="M392.5 143.5C253 205 390.5 143.5 390.5 143.5C390.5 143.5 323.946 151.5 310.5 146.5C280.589 103.586 228 129 228 129C202.5 145.414 193.267 162 193.379 193.695C193.379 195.008 193.414 196.313 193.5 197.605C193.676 200.766 194.078 203.871 194.7 206.891C177.059 206.629 113.383 201.219 60.6175 139.926C60.6175 139.926 31.2347 191.191 80.6332 226.211C80.6332 226.211 60.6175 225.586 49.9925 218.082C49.9925 218.082 46.8675 267.48 103.762 283.105C103.762 283.105 83.7582 288.113 73.7464 283.734C73.7464 283.734 83.7542 326.25 133.774 329.383C133.774 329.383 212.5 333 178 351C206.813 369.242 138.875 382.5 175.5 382.5C278.481 382.5 325.379 302.82 325.379 199.84C325.379 198.555 325.368 197.27 325.34 195.984C325.368 195.223 325.379 194.465 325.379 193.695C325.379 193.16 325.368 192.625 325.36 192.09C344.399 179.402 392.5 143.5 392.5 143.5Z" fill="white"/>
<path d="M276.5 233.5H305.5L228 129C228 129 325.267 157.238 325.267 193.695C325.267 195.008 325.231 196.313 325.146 197.605C324.97 200.766 324.567 203.871 323.946 206.891C341.587 206.629 405.263 201.219 458.028 139.926C458.028 139.926 487.411 191.191 438.013 226.211C438.013 226.211 458.028 225.586 468.653 218.082C468.653 218.082 471.778 267.48 414.884 283.105C414.884 283.105 434.888 288.113 444.899 283.734C444.899 283.734 434.892 326.25 384.872 329.383C384.872 329.383 306.146 333 340.646 351C311.833 369.242 379.771 382.5 343.146 382.5C240.165 382.5 193.267 302.82 193.267 199.84C193.267 198.555 202.473 216.785 202.5 215.5C210.195 233.016 219 218.852 219 218.082C219 217.547 272.492 226.746 272.5 226.211C272.481 203.121 276.5 233.5 276.5 233.5Z" fill="white"/>
<defs>
<linearGradient id="paint0_linear" x1="169.994" y1="71.9862" x2="299.493" y2="349.055" gradientUnits="userSpaceOnUse">
<stop stop-color="#FF9900"/>
<stop offset="1" stop-color="#FF9900"/>
</linearGradient>
<linearGradient id="paint1_linear" x1="364.282" y1="314.087" x2="-379.586" y2="-84.9522" gradientUnits="userSpaceOnUse">
<stop stop-color="#F9FC5C" stop-opacity="0"/>
<stop offset="1" stop-color="#FFEA9E"/>
</linearGradient>
<linearGradient id="paint2_linear" x1="256" y1="437.383" x2="256" y2="504.472" gradientUnits="userSpaceOnUse">
<stop stop-color="#2499BE" stop-opacity="0"/>
<stop offset="1" stop-color="#FF9900"/>
</linearGradient>
<linearGradient id="paint3_linear" x1="432.421" y1="482.072" x2="182.294" y2="231.945" gradientUnits="userSpaceOnUse">
<stop stop-color="#FF9900" stop-opacity="0"/>
<stop offset="1" stop-color="#FFE03A"/>
</linearGradient>
</defs>
</svg>
