<svg width="61" height="61" viewBox="0 0 471 569" fill="none" xmlns="http://www.w3.org/2000/svg">
<!-- <path fill-rule="evenodd" clip-rule="evenodd" d="M381.956 499V568.546H395.435V525.436L417.231 568.546H430.71V499H417.231V541.907L395.435 499H381.956Z" fill="#FF9000"/>
<path fill-rule="evenodd" clip-rule="evenodd" d="M336.502 499L319.692 568.546H333.171L336.216 555.508H354.964L358.014 568.546H371.865L355.054 499H336.502ZM345.581 515.408L352.441 544.729H338.733L345.581 515.408Z" fill="#FF9000"/>
<path d="M215.78 568.5V499H228.78H232.78L236.78 499.5L239.28 500L241.78 500.5L244.78 501.5L245.78 502L249.78 504L252.78 506L254.28 507.5L255.28 508.5L256.78 510.5L257.78 512.5L258.78 515.5L259.28 518V521V523L258.78 525.5L257.78 528L256.28 531L255.28 532.5L253.78 534.5L252.78 535.5L250.78 537L248.78 538.5L246.28 540L243.78 541L241.28 542L238.78 543L236.28 544L234.78 544.5L232.78 545L229.28 546V568.5H215.78Z" fill="#FF9000" stroke="#FF9000"/>
<path d="M283.28 499H269.78V568.5H309.78V557.772H283.28V499Z" fill="#FF9000" stroke="#FF9000"/>
<path d="M229.28 534.5V510H232.78L235.78 510.5L237.78 511L239.78 512L241.78 513L243.78 515L244.78 516L245.28 517L245.78 519V521V522.5L245.28 524L244.78 525L244.28 526L242.78 528L240.28 530L238.78 531L236.78 532L234.28 533L229.28 534.5Z" fill="rgba(0,0,0,0)" stroke="#FF9000"/>
<path fill-rule="evenodd" clip-rule="evenodd" d="M135.862 499.003V568.549H175.815V557.769H149.342V538.024H169.311V527.244H149.342V509.783H173.272L175.836 499.003L135.862 499.003Z" fill="#FF9000"/> -->
<!-- <path d="M73.748 568.546H60.0551L42.7795 499H56.9055L67.4593 544.026L77.8704 499H90.6579L100.982 544.026L111.687 499H125.323L107.999 568.546H94.3184L84.0257 524.618L73.748 568.546Z" fill="#FF9000"/> -->
<path d="M465.247 86.556C464.614 84.5307 464.019 83.7793 462.791 83.518L418.425 73.7182L412.246 52.8778C411.929 51.8651 411.612 51.1137 410.384 50.8525L364.79 40.6934L359.244 20.8657C359.174 19.6767 358.182 18.6608 356.789 18.3504L238.309 0.220487C236.371 -0.0734957 234.384 -0.0734957 232.446 0.220487L114.006 18.3504C112.604 18.6579 111.598 19.6714 111.51 20.8657L105.965 40.6934L60.3705 50.8525C59.1425 51.1138 58.8257 51.8652 58.5483 52.8778L52.3688 73.7182L8.00289 83.518C6.77493 83.7793 6.14109 84.5306 5.54698 86.556C1.80019 102.804 -0.0568403 119.31 0.00132497 135.849C0.00132497 282.194 92.4175 409.225 230.462 484.958C231.891 485.939 233.57 486.642 235.374 487.016C237.19 486.644 238.882 485.94 240.325 484.958C378.334 409.238 470.786 282.194 470.786 135.849C470.825 119.31 468.968 102.807 465.24 86.556H465.247Z" fill="#FF9000"/>
<path d="M218.139 417.789C218.139 418.802 216.911 419.292 215.683 418.279C181.775 386.266 158.998 347.165 143.589 304.471L120.178 316.525C113.998 320.053 109.086 318.55 105.402 312.964C73.9898 267.232 53.6286 192.099 51.8069 139.219C51.7327 136.794 52.8299 134.444 54.857 132.686C63.2344 124.402 72.2589 116.579 81.8723 109.264C83.6945 107.729 85.5562 108.742 85.5562 111.29C85.5562 176.327 99.1036 236.792 120.692 276.412C122.515 279.45 124.376 279.45 126.832 277.948L133.606 274.387C120.693 227.119 113.286 164.139 115.147 91.4565C115.147 88.9085 115.741 87.8959 117.603 86.8833C127.042 82.0278 136.922 77.7795 147.153 74.1762C150.242 73.1635 150.876 73.6535 150.876 75.6789C149.014 181.354 159.472 254.53 182.289 312.961C182.883 314.464 184.745 313.974 184.745 312.438C183.517 291.107 183.517 272.292 183.517 249.459L182.289 67.0485C182.289 65.0233 182.883 64.0106 185.379 63.4879C195.511 61.4291 205.791 59.9016 216.157 58.9147C216.668 58.8606 217.18 59.0049 217.545 59.3054C217.909 59.6059 218.084 60.0286 218.018 60.4501L218.139 417.789Z" fill="white"/>
<path d="M252.78 59.9998V60.4998V417.5V418V418.5L253.28 419H253.78H254.28H254.78L259.78 415.5L264.28 412.5L268.78 409.5L273.78 406L277.28 403.5L287.78 396L290.78 393.5L291.78 392L292.28 391L292.78 389.75V249V240V234L293.28 233.5L303.28 227.5L318.78 219.5L330.28 213L340.78 207L350.78 201.5L358.78 197L365.78 193L370.78 190L378.78 184.5L384.78 180L387.28 178L391.28 174.5L394.78 171L397.78 167.5L398.78 166L400.28 164L401.28 162.5L402.78 160L404.78 156.5L406.28 153.5L406.78 152L407.28 150.5L407.78 149L408.28 147.5L408.78 146L409.28 143.5L409.78 140.5L410.28 137V135V132V130V129L409.78 126L409.28 124L408.78 122L408.28 120.5L407.78 119L407.28 117.5L406.28 115.5L405.28 113.5L403.78 111L402.28 108.5L400.28 106L398.78 104L397.28 102.5L393.78 98.9998L389.78 95.4998L382.78 90.4998L381.28 89.4998L379.78 88.4998L377.78 87.4998L375.28 85.9998L373.28 84.9998L371.28 83.9998L369.28 82.9998L367.28 81.9998L365.28 80.9998L362.78 79.9998L360.28 78.9998L357.78 77.9998L355.28 76.9998L352.78 75.9998L349.78 74.9998L346.78 73.9998L343.78 72.9998L340.28 71.9998L336.78 70.9998L332.78 69.9998L328.78 68.9998L324.78 67.9998L319.78 66.9998L315.28 65.9998L309.78 64.9998L303.78 63.9998L297.78 62.9998L289.78 61.9998L281.78 60.9998L269.78 59.9998L254.78 58.9998H253.78L252.78 59.9998Z" fill="white" stroke="white"/>
<path d="M292.78 198.812V92.4998H294.78L301.78 92.9998L305.78 93.4998L309.28 93.9998L312.28 94.4998L315.28 94.9998L317.78 95.4998L320.28 95.9998L324.78 96.9998L328.28 97.9998L331.78 98.9998L334.78 99.9998L338.78 101.5L341.28 102.5L344.78 104L347.78 105.5L350.28 107L352.78 108.5L356.28 111L358.28 112.5L360.78 115L362.78 117L363.78 118.5L365.28 120.5L366.78 123L368.28 127.5L368.78 131.5V134L368.28 137L367.28 141L366.78 143L365.78 145.5L363.78 149.5L361.28 153.5L357.78 158L353.78 162.5L348.28 167.5L343.28 171.5L341.28 173L339.78 174L336.78 176L333.78 178L332.28 179L329.78 180.5L322.78 184.5L317.28 187.5L301.78 195L292.78 198.812Z" fill="#FF9000" stroke="white"/>
</svg>
