<svg width="121" height="28" viewBox="0 0 121 28" fill="none" xmlns="http://www.w3.org/2000/svg">
<path d="M22.3711 19.6172L25.8164 1.40625H31.0723L25.3945 27H20.0859L15.9199 9.87891L11.7539 27H6.44531L0.767578 1.40625H6.02344L9.48633 19.582L13.7051 1.40625H18.1699L22.3711 19.6172ZM41.7949 27.3516C39.0059 27.3516 36.7324 26.4961 34.9746 24.7852C33.2285 23.0742 32.3555 20.7949 32.3555 17.9473V17.4551C32.3555 15.5449 32.7246 13.8398 33.4629 12.3398C34.2012 10.8281 35.2441 9.66797 36.5918 8.85938C37.9512 8.03906 39.498 7.62891 41.2324 7.62891C43.834 7.62891 45.8789 8.44922 47.3672 10.0898C48.8672 11.7305 49.6172 14.0566 49.6172 17.0684V19.1426H37.5059C37.6699 20.3848 38.1621 21.3809 38.9824 22.1309C39.8145 22.8809 40.8633 23.2559 42.1289 23.2559C44.0859 23.2559 45.6152 22.5469 46.7168 21.1289L49.2129 23.9238C48.4512 25.002 47.4199 25.8457 46.1191 26.4551C44.8184 27.0527 43.377 27.3516 41.7949 27.3516ZM41.2148 11.7422C40.207 11.7422 39.3867 12.082 38.7539 12.7617C38.1328 13.4414 37.7344 14.4141 37.5586 15.6797H44.625V15.2754C44.6016 14.1504 44.2969 13.2832 43.7109 12.6738C43.125 12.0527 42.293 11.7422 41.2148 11.7422ZM58.125 17.9824V27H52.8516V1.40625H62.8359C64.7578 1.40625 66.4453 1.75781 67.8984 2.46094C69.3633 3.16406 70.4883 4.16602 71.2734 5.4668C72.0586 6.75586 72.4512 8.22656 72.4512 9.87891C72.4512 12.3867 71.5898 14.3672 69.8672 15.8203C68.1562 17.2617 65.7832 17.9824 62.748 17.9824H58.125ZM58.125 13.7109H62.8359C64.2305 13.7109 65.291 13.3828 66.0176 12.7266C66.7559 12.0703 67.125 11.1328 67.125 9.91406C67.125 8.66016 66.7559 7.64648 66.0176 6.87305C65.2793 6.09961 64.2598 5.70117 62.959 5.67773H58.125V13.7109ZM81.1172 27H76.0195V0H81.1172V27ZM96.3398 27C96.1055 26.543 95.9355 25.9746 95.8301 25.2949C94.5996 26.666 93 27.3516 91.0312 27.3516C89.168 27.3516 87.6211 26.8125 86.3906 25.7344C85.1719 24.6562 84.5625 23.2969 84.5625 21.6562C84.5625 19.6406 85.3066 18.0938 86.7949 17.0156C88.2949 15.9375 90.457 15.3926 93.2812 15.3809H95.6191V14.291C95.6191 13.4121 95.3906 12.709 94.9336 12.1816C94.4883 11.6543 93.7793 11.3906 92.8066 11.3906C91.9512 11.3906 91.2773 11.5957 90.7852 12.0059C90.3047 12.416 90.0645 12.9785 90.0645 13.6934H84.9844C84.9844 12.5918 85.3242 11.5723 86.0039 10.6348C86.6836 9.69727 87.6445 8.96484 88.8867 8.4375C90.1289 7.89844 91.5234 7.62891 93.0703 7.62891C95.4141 7.62891 97.2715 8.2207 98.6426 9.4043C100.025 10.5762 100.717 12.2285 100.717 14.3613V22.6055C100.729 24.4102 100.98 25.7754 101.473 26.7012V27H96.3398ZM92.1387 23.4668C92.8887 23.4668 93.5801 23.3027 94.2129 22.9746C94.8457 22.6348 95.3145 22.1836 95.6191 21.6211V18.3516H93.7207C91.1777 18.3516 89.8242 19.2305 89.6602 20.9883L89.6426 21.2871C89.6426 21.9199 89.8652 22.4414 90.3105 22.8516C90.7559 23.2617 91.3652 23.4668 92.1387 23.4668ZM109.295 7.98047L109.453 10.1777C110.812 8.47852 112.635 7.62891 114.92 7.62891C116.936 7.62891 118.436 8.2207 119.42 9.4043C120.404 10.5879 120.908 12.3574 120.932 14.7129V27H115.852V14.8359C115.852 13.7578 115.617 12.9785 115.148 12.498C114.68 12.0059 113.9 11.7598 112.811 11.7598C111.381 11.7598 110.309 12.3691 109.594 13.5879V27H104.514V7.98047H109.295Z" fill="rgba(255, 153, 0, 1)"/>
</svg>
