<svg width="329" height="144" viewBox="0 0 329 144" fill="none" xmlns="http://www.w3.org/2000/svg">
<line x1="15.607" y1="65.0849" x2="92.2114" y2="129.364" stroke="black" stroke-width="5"/>
<line y1="-2.5" x2="40" y2="-2.5" transform="matrix(-0.766044 0.642788 0.642788 0.766044 169.312 118.14)" stroke="black" stroke-width="5"/>
<line x1="7.60697" y1="35.0849" x2="122.514" y2="131.503" stroke="black" stroke-width="5"/>
<line y1="-2.5" x2="60" y2="-2.5" transform="matrix(-0.766044 0.642788 0.642788 0.766044 167.303 94.1396)" stroke="black" stroke-width="5"/>
<line x1="1.60697" y1="2.08489" x2="116.514" y2="98.503" stroke="black" stroke-width="5"/>
<line y1="-2.5" x2="100" y2="-2.5" transform="matrix(-0.766044 0.642788 0.642788 0.766044 314.312 67)" stroke="black" stroke-width="5"/>
<line x1="160.607" y1="116.225" x2="191.249" y2="141.936" stroke="black" stroke-width="5"/>
<line y1="-2.5" x2="150" y2="-2.5" transform="matrix(-0.766044 0.642788 0.642788 0.766044 322.312 37)" stroke="black" stroke-width="5"/>
<line x1="162.616" y1="92.2245" x2="208.579" y2="130.792" stroke="black" stroke-width="5"/>
<line y1="-2.5" x2="150" y2="-2.5" transform="matrix(-0.766044 0.642788 0.642788 0.766044 328.312 4)" stroke="black" stroke-width="5"/>
</svg>
