<svg width="329" height="144" viewBox="0 0 329 144" fill="none" xmlns="http://www.w3.org/2000/svg">
<line x1="15.607" y1="65.0849" x2="92.2114" y2="129.364" stroke="url(#paint0_linear)" stroke-width="5"/>
<line y1="-2.5" x2="40" y2="-2.5" transform="matrix(-0.766044 0.642788 0.642788 0.766044 169.312 118.14)" stroke="url(#paint1_linear)" stroke-width="5"/>
<line x1="7.60697" y1="35.0849" x2="122.514" y2="131.503" stroke="url(#paint2_linear)" stroke-width="5"/>
<line y1="-2.5" x2="60" y2="-2.5" transform="matrix(-0.766044 0.642788 0.642788 0.766044 167.303 94.1396)" stroke="url(#paint3_linear)" stroke-width="5"/>
<line x1="1.60697" y1="2.08489" x2="116.514" y2="98.503" stroke="url(#paint4_linear)" stroke-width="5"/>
<line y1="-2.5" x2="100" y2="-2.5" transform="matrix(-0.766044 0.642788 0.642788 0.766044 314.312 67)" stroke="url(#paint5_linear)" stroke-width="5"/>
<line x1="160.607" y1="116.225" x2="191.249" y2="141.936" stroke="url(#paint6_linear)" stroke-width="5"/>
<line y1="-2.5" x2="150" y2="-2.5" transform="matrix(-0.766044 0.642788 0.642788 0.766044 322.312 37)" stroke="url(#paint7_linear)" stroke-width="5"/>
<line x1="162.616" y1="92.2245" x2="208.579" y2="130.792" stroke="url(#paint8_linear)" stroke-width="5"/>
<line y1="-2.5" x2="150" y2="-2.5" transform="matrix(-0.766044 0.642788 0.642788 0.766044 328.312 4)" stroke="url(#paint9_linear)" stroke-width="5"/>
<defs>
<linearGradient id="paint0_linear" x1="52.3022" y1="99.1394" x2="51.6594" y2="99.9054" gradientUnits="userSpaceOnUse">
<stop stop-color="#FF9B00"/>
<stop offset="0.479167" stop-color="#FF0000"/>
<stop offset="0.989583" stop-color="#FF9B00"/>
</linearGradient>
<linearGradient id="paint1_linear" x1="20" y1="0" x2="20" y2="1" gradientUnits="userSpaceOnUse">
<stop stop-color="#FF9B00"/>
<stop offset="0.479167" stop-color="#FF0000"/>
<stop offset="0.989583" stop-color="#FF9B00"/>
</linearGradient>
<linearGradient id="paint2_linear" x1="63.4533" y1="85.2091" x2="62.8105" y2="85.9751" gradientUnits="userSpaceOnUse">
<stop stop-color="#FF9B00"/>
<stop offset="0.479167" stop-color="#FF0000"/>
<stop offset="0.989583" stop-color="#FF9B00"/>
</linearGradient>
<linearGradient id="paint3_linear" x1="30" y1="0" x2="30" y2="1" gradientUnits="userSpaceOnUse">
<stop stop-color="#FF9B00"/>
<stop offset="0.479167" stop-color="#FF0000"/>
<stop offset="0.989583" stop-color="#FF9B00"/>
</linearGradient>
<linearGradient id="paint4_linear" x1="57.4533" y1="52.2091" x2="56.8105" y2="52.9751" gradientUnits="userSpaceOnUse">
<stop stop-color="#FF9B00"/>
<stop offset="0.479167" stop-color="#FF0000"/>
<stop offset="0.989583" stop-color="#FF9B00"/>
</linearGradient>
<linearGradient id="paint5_linear" x1="50" y1="0" x2="50" y2="1" gradientUnits="userSpaceOnUse">
<stop stop-color="#FF9B00"/>
<stop offset="0.479167" stop-color="#FF0000"/>
<stop offset="0.989583" stop-color="#FF9B00"/>
</linearGradient>
<linearGradient id="paint6_linear" x1="174.321" y1="130.995" x2="173.678" y2="131.761" gradientUnits="userSpaceOnUse">
<stop stop-color="#FF9B00"/>
<stop offset="0.479167" stop-color="#FF0000"/>
<stop offset="0.989583" stop-color="#FF9B00"/>
</linearGradient>
<linearGradient id="paint7_linear" x1="75" y1="0" x2="75" y2="1" gradientUnits="userSpaceOnUse">
<stop stop-color="#FF9B00"/>
<stop offset="0.479167" stop-color="#FF0000"/>
<stop offset="0.989583" stop-color="#FF9B00"/>
</linearGradient>
<linearGradient id="paint8_linear" x1="183.991" y1="113.423" x2="183.348" y2="114.189" gradientUnits="userSpaceOnUse">
<stop stop-color="#FF9B00"/>
<stop offset="0.479167" stop-color="#FF0000"/>
<stop offset="0.989583" stop-color="#FF9B00"/>
</linearGradient>
<linearGradient id="paint9_linear" x1="75" y1="0" x2="75" y2="1" gradientUnits="userSpaceOnUse">
<stop stop-color="#FF9B00"/>
<stop offset="0.479167" stop-color="#FF0000"/>
<stop offset="0.989583" stop-color="#FF9B00"/>
</linearGradient>
</defs>
</svg>
