<svg width="329" height="160" viewBox="0 0 329 160" fill="none" xmlns="http://www.w3.org/2000/svg">
<line x1="15.6072" y1="80.3642" x2="92.2117" y2="144.643" stroke="black" stroke-width="5"/>
<line y1="-2.5" x2="40" y2="-2.5" transform="matrix(-0.766044 0.642788 0.642788 0.766044 169.313 133.419)" stroke="black" stroke-width="5"/>
<line x1="7.60721" y1="50.3642" x2="122.514" y2="146.782" stroke="black" stroke-width="5"/>
<line y1="-2.5" x2="60" y2="-2.5" transform="matrix(-0.766044 0.642788 0.642788 0.766044 167.303 109.419)" stroke="black" stroke-width="5"/>
<line x1="1.60721" y1="17.3642" x2="116.514" y2="113.782" stroke="black" stroke-width="5"/>
<line y1="-2.5" x2="100" y2="-2.5" transform="matrix(-0.766044 0.642788 0.642788 0.766044 314.312 82.2793)" stroke="black" stroke-width="5"/>
<line x1="160.607" y1="131.504" x2="191.249" y2="157.215" stroke="black" stroke-width="5"/>
<line y1="-2.5" x2="150" y2="-2.5" transform="matrix(-0.766044 0.642788 0.642788 0.766044 322.312 52.2793)" stroke="black" stroke-width="5"/>
<line x1="162.617" y1="107.504" x2="208.579" y2="146.071" stroke="black" stroke-width="5"/>
<line x1="162.619" y1="75.5038" x2="208.582" y2="114.071" stroke="black" stroke-width="5"/>
<line y1="-2.5" x2="60" y2="-2.5" transform="matrix(-0.766044 0.642788 0.642788 0.766044 166.975 77.4189)" stroke="black" stroke-width="5"/>
<line y1="-2.5" x2="150" y2="-2.5" transform="matrix(-0.766044 0.642788 0.642788 0.766044 328.312 19.2793)" stroke="black" stroke-width="5"/>
<path d="M127.273 15.4067C129.345 24.2776 143.627 -21.4257 201.517 44.7443" stroke="black" stroke-width="3"/>
<path d="M127.118 44.7263C137.01 63.7824 154.024 32.9922 201.362 45.7166" stroke="black" stroke-width="3"/>
<line x1="127.184" y1="45.8911" x2="127.184" y2="22.9515" stroke="black" stroke-width="3"/>
<path d="M136.191 19.0737C137.642 24.874 147.639 -5.0093 188.162 38.2563" stroke="black" stroke-width="3"/>
<path d="M136.082 38.2441C143.007 50.7041 154.917 30.5717 188.054 38.8916" stroke="black" stroke-width="3"/>
<line x1="135.679" y1="39.0063" x2="135.679" y2="24.0072" stroke="black" stroke-width="3"/>
<path d="M149.136 23.1108C150.173 27.2052 157.313 6.11112 186.259 36.6514" stroke="black" stroke-width="3"/>
<path d="M149.059 36.643C154.005 45.4382 162.512 31.2272 186.181 37.1001" stroke="black" stroke-width="3"/>
<line x1="148.342" y1="37.1812" x2="148.342" y2="26.5935" stroke="black" stroke-width="3"/>
<path d="M164.075 30.9628C164.645 32.6688 168.573 23.8797 184.492 36.6047" stroke="black" stroke-width="3"/>
<path d="M164.032 36.6011C166.753 40.2657 171.431 34.3445 184.449 36.7915" stroke="black" stroke-width="3"/>
<line x1="162.963" y1="36.8252" x2="162.963" y2="32.4137" stroke="black" stroke-width="3"/>
</svg>
