<svg width="329" height="160" viewBox="0 0 329 160" fill="none" xmlns="http://www.w3.org/2000/svg">
<line x1="15.607" y1="80.3642" x2="92.2114" y2="144.643" stroke="#FF9B00" stroke-width="5"/>
<line y1="-2.5" x2="40" y2="-2.5" transform="matrix(-0.766044 0.642788 0.642788 0.766044 169.312 133.419)" stroke="#FF9B00" stroke-width="5"/>
<line x1="7.60697" y1="50.3642" x2="122.514" y2="146.782" stroke="#FF9B00" stroke-width="5"/>
<line y1="-2.5" x2="60" y2="-2.5" transform="matrix(-0.766044 0.642788 0.642788 0.766044 167.303 109.419)" stroke="#FF9B00" stroke-width="5"/>
<line x1="1.60697" y1="17.3642" x2="116.514" y2="113.782" stroke="#FF9B00" stroke-width="5"/>
<line y1="-2.5" x2="100" y2="-2.5" transform="matrix(-0.766044 0.642788 0.642788 0.766044 314.312 82.2793)" stroke="#FF9B00" stroke-width="5"/>
<line x1="160.607" y1="131.504" x2="191.249" y2="157.215" stroke="#FF9B00" stroke-width="5"/>
<line y1="-2.5" x2="150" y2="-2.5" transform="matrix(-0.766044 0.642788 0.642788 0.766044 322.312 52.2793)" stroke="#FF9B00" stroke-width="5"/>
<line x1="162.616" y1="107.504" x2="208.579" y2="146.071" stroke="#FF9B00" stroke-width="5"/>
<line x1="162.619" y1="75.5038" x2="208.581" y2="114.071" stroke="#FF9B00" stroke-width="5"/>
<line y1="-2.5" x2="60" y2="-2.5" transform="matrix(-0.766044 0.642788 0.642788 0.766044 166.974 77.4189)" stroke="#FF9B00" stroke-width="5"/>
<line y1="-2.5" x2="150" y2="-2.5" transform="matrix(-0.766044 0.642788 0.642788 0.766044 328.312 19.2793)" stroke="#FF9B00" stroke-width="5"/>
<path d="M127.273 15.4067C129.345 24.2776 143.627 -21.4257 201.517 44.7443" stroke="#FF9B00" stroke-width="3"/>
<path d="M127.118 44.7258C137.01 63.782 154.024 32.9918 201.362 45.7161" stroke="#FF9B00" stroke-width="3"/>
<line x1="127.184" y1="45.8906" x2="127.184" y2="22.951" stroke="#FF9B00" stroke-width="3"/>
<path d="M136.191 19.0737C137.641 24.874 147.639 -5.0093 188.162 38.2563" stroke="#FF9B00" stroke-width="3"/>
<path d="M136.082 38.2441C143.007 50.7041 154.917 30.5717 188.053 38.8916" stroke="#FF9B00" stroke-width="3"/>
<line x1="135.678" y1="39.0059" x2="135.678" y2="24.0067" stroke="#FF9B00" stroke-width="3"/>
<path d="M149.136 23.1108C150.172 27.2052 157.313 6.11112 186.258 36.6514" stroke="#FF9B00" stroke-width="3"/>
<path d="M149.059 36.643C154.005 45.4382 162.512 31.2272 186.181 37.1001" stroke="#FF9B00" stroke-width="3"/>
<line x1="148.342" y1="37.1816" x2="148.342" y2="26.594" stroke="#FF9B00" stroke-width="3"/>
<path d="M164.075 30.9628C164.645 32.6688 168.572 23.8797 184.492 36.6047" stroke="#FF9B00" stroke-width="3"/>
<path d="M164.032 36.6011C166.752 40.2657 171.431 34.3445 184.449 36.7915" stroke="#FF9B00" stroke-width="3"/>
<line x1="162.963" y1="36.8252" x2="162.963" y2="32.4137" stroke="#FF9B00" stroke-width="3"/>
</svg>
