<svg width="575" height="605" viewBox="0 0 575 605" fill="none" xmlns="http://www.w3.org/2000/svg">
<rect width="575" height="605" fill="white"/>
<path fill-rule="evenodd" clip-rule="evenodd" d="M434.176 499V568.546H447.656V525.436L469.451 568.546H482.931V499H469.451V541.907L447.656 499H434.176Z" fill="#061E7A"/>
<path fill-rule="evenodd" clip-rule="evenodd" d="M388.723 499L371.913 568.546H385.392L388.436 555.508H407.184L410.235 568.546H424.085L407.274 499H388.723ZM397.801 515.408L404.661 544.729H390.954L397.801 515.408Z" fill="#061E7A"/>
<path d="M268 568.5V499H281H285L289 499.5L291.5 500L294 500.5L297 501.5L298 502L302 504L305 506L306.5 507.5L307.5 508.5L309 510.5L310 512.5L311 515.5L311.5 518V521V523L311 525.5L310 528L308.5 531L307.5 532.5L306 534.5L305 535.5L303 537L301 538.5L298.5 540L296 541L293.5 542L291 543L288.5 544L287 544.5L285 545L281.5 546V568.5H268Z" fill="#061E7A" stroke="#061E7A"/>
<path d="M335.5 499H322V568.5H362V557.773H335.5V499Z" fill="#061E7A" stroke="#061E7A"/>
<path d="M281.5 534.5V510H285L288 510.5L290 511L292 512L294 513L296 515L297 516L297.5 517L298 519V521V522.5L297.5 524L297 525L296.5 526L295 528L292.5 530L291 531L289 532L286.5 533L281.5 534.5Z" fill="white" stroke="#061E7A"/>
<path fill-rule="evenodd" clip-rule="evenodd" d="M188.082 499.003V568.549H228.035V557.769H201.562V538.024H221.531V527.245H201.562V509.783H225.492L228.056 499.003L188.082 499.003Z" fill="#061E7A"/>
<path d="M125.968 568.546H112.276L95 499H109.126L119.68 544.026L130.091 499H142.878L153.202 544.026L163.907 499H177.543L160.22 568.546H146.539L136.246 524.619L125.968 568.546Z" fill="#061E7A"/>
<path d="M517.468 86.5562C516.834 84.531 516.24 83.7795 515.012 83.5182L470.646 73.7184L464.466 52.878C464.15 51.8653 463.833 51.114 462.605 50.8528L417.011 40.6936L411.465 20.8659C411.394 19.6769 410.403 18.6611 409.009 18.3506L290.529 0.220731C288.591 -0.0732516 286.605 -0.0732516 284.667 0.220731L166.226 18.3506C164.824 18.6581 163.819 19.6717 163.731 20.8659L158.185 40.6936L112.591 50.8528C111.363 51.1141 111.046 51.8654 110.769 52.878L104.589 73.7184L60.2233 83.5182C58.9954 83.7795 58.3615 84.5309 57.7674 86.5562C54.0206 102.804 52.1636 119.311 52.2218 135.85C52.2218 282.194 144.638 409.226 282.682 484.958C284.112 485.939 285.791 486.642 287.594 487.016C289.411 486.644 291.103 485.941 292.546 484.958C430.554 409.238 523.006 282.194 523.006 135.85C523.045 119.311 521.188 102.807 517.461 86.5562H517.468Z" fill="#004DB4"/>
<path d="M270.359 417.789C270.359 418.802 269.131 419.292 267.903 418.279C233.995 386.266 211.219 347.165 195.809 304.471L172.398 316.525C166.219 320.053 161.307 318.55 157.623 312.965C126.21 267.233 105.849 192.1 104.027 139.219C103.953 136.794 105.05 134.444 107.077 132.686C115.455 124.402 124.479 116.579 134.093 109.265C135.915 107.729 137.777 108.742 137.777 111.29C137.777 176.327 151.324 236.792 172.913 276.413C174.735 279.45 176.597 279.45 179.053 277.948L185.826 274.387C172.913 227.119 165.506 164.139 167.367 91.4567C167.367 88.9088 167.961 87.8962 169.823 86.8835C179.263 82.028 189.142 77.7798 199.373 74.1764C202.463 73.1638 203.097 73.6538 203.097 75.6791C201.235 181.354 211.692 254.53 234.509 312.961C235.103 314.464 236.965 313.974 236.965 312.439C235.737 291.107 235.737 272.292 235.737 249.459L234.509 67.0488C234.509 65.0235 235.103 64.0109 237.599 63.4882C247.731 61.4293 258.011 59.9019 268.377 58.915C268.888 58.8609 269.401 59.0052 269.765 59.3057C270.129 59.6061 270.304 60.0288 270.239 60.4503L270.359 417.789Z" fill="white"/>
<path d="M305 60V60.5V417.5V418V418.5L305.5 419H306H306.5H307L312 415.5L316.5 412.5L321 409.5L326 406L329.5 403.5L340 396L343 393.5L344 392L344.5 391L345 389.75V249V240V234L345.5 233.5L355.5 227.5L371 219.5L382.5 213L393 207L403 201.5L411 197L418 193L423 190L431 184.5L437 180L439.5 178L443.5 174.5L447 171L450 167.5L451 166L452.5 164L453.5 162.5L455 160L457 156.5L458.5 153.5L459 152L459.5 150.5L460 149L460.5 147.5L461 146L461.5 143.5L462 140.5L462.5 137V135V132V130V129L462 126L461.5 124L461 122L460.5 120.5L460 119L459.5 117.5L458.5 115.5L457.5 113.5L456 111L454.5 108.5L452.5 106L451 104L449.5 102.5L446 99L442 95.5L435 90.5L433.5 89.5L432 88.5L430 87.5L427.5 86L425.5 85L423.5 84L421.5 83L419.5 82L417.5 81L415 80L412.5 79L410 78L407.5 77L405 76L402 75L399 74L396 73L392.5 72L389 71L385 70L381 69L377 68L372 67L367.5 66L362 65L356 64L350 63L342 62L334 61L322 60L307 59H306L305 60Z" fill="white" stroke="white"/>
<path d="M345 198.812V92.5H347L354 93L358 93.5L361.5 94L364.5 94.5L367.5 95L370 95.5L372.5 96L377 97L380.5 98L384 99L387 100L391 101.5L393.5 102.5L397 104L400 105.5L402.5 107L405 108.5L408.5 111L410.5 112.5L413 115L415 117L416 118.5L417.5 120.5L419 123L420.5 127.5L421 131.5V134L420.5 137L419.5 141L419 143L418 145.5L416 149.5L413.5 153.5L410 158L406 162.5L400.5 167.5L395.5 171.5L393.5 173L392 174L389 176L386 178L384.5 179L382 180.5L375 184.5L369.5 187.5L354 195L345 198.812Z" fill="#004DB4" stroke="white"/>
</svg>
